 <svg  version="1.0" xmlns="http://www.w3.org/2000/svg"  width="300.000000pt" height="300.000000pt" viewBox="0 0 300.000000 300.000000"  preserveAspectRatio="xMidYMid meet">  <g transform="translate(0.000000,300.000000) scale(0.100000,-0.100000)" fill="#ffffff" stroke="none"> <path d="M1865 2422 c-41 -13 -125 -16 -482 -19 -325 -3 -433 -7 -433 -16 0 -7 17 -13 40 -14 53 -3 97 -27 120 -66 19 -31 20 -55 20 -743 l0 -711 -22 -33 c-33 -48 -67 -70 -115 -73 -26 -1 -43 -7 -43 -14 0 -10 60 -13 266 -13 191 0 265 3 262 11 -2 6 -21 13 -42 15 -46 4 -92 30 -120 67 -20 27 -21 41 -24 363 l-3 334 396 0 c434 0 439 -1 470 -60 8 -16 15 -43 15 -60 0 -17 5 -30 13 -30 9 0 12 45 12 190 0 134 -3 190 -11 190 -6 0 -14 -20 -17 -45 -2 -25 -13 -55 -23 -67 -42 -46 -60 -48 -469 -48 l-385 0 0 376 0 375 273 -3 c240 -3 275 -5 298 -21 32 -21 49 -57 49 -102 0 -24 5 -35 15 -35 13 0 15 22 15 135 0 150 5 143 -75 117z m37 -89 l-4 -22 -30 22 c-29 21 -39 22 -301 25 -268 3 -272 3 -289 -19 -16 -19 -18 -54 -18 -389 0 -314 2 -369 15 -380 19 -16 19 -34 0 -50 -13 -11 -15 -60 -15 -332 0 -341 3 -363 52 -415 l21 -23 -123 0 -123 0 20 23 c56 61 55 47 60 621 2 292 1 614 -4 716 -8 182 -9 186 -37 223 l-28 37 348 1 c229 1 366 5 399 13 47 11 50 10 56 -9 3 -11 3 -30 1 -42z m256 -805 l-3 -23 -43 22 -44 22 35 14 c19 8 38 21 43 28 10 16 18 -25 12 -63z"/> </g> </svg> 